<svg width="117" height="187" viewBox="0 0 117 187" fill="none" xmlns="http://www.w3.org/2000/svg">
<rect x="48.7012" y="105.83" width="19.1992" height="25.2867" rx="2.34136" fill="#535151"/>
<ellipse cx="58.0658" cy="59.2364" rx="58.0658" ry="59.2364" fill="#DAA8BB"/>
<ellipse cx="58.0665" cy="59.4702" rx="24.8184" ry="23.4136" fill="#403F3F"/>
<rect x="4.21484" y="128.775" width="108.171" height="55.2561" rx="3.2779" fill="#535151"/>
<path d="M38.2816 148.813V144.361H20.1682V168.33H25.7152V159.599H36.8093V155.147H25.7152V148.813H38.2816ZM42.0369 168.33H47.584V144.361H42.0369V168.33ZM74.5016 168.33L69.1258 160.626C72.2417 159.29 74.0565 156.654 74.0565 153.059C74.0565 147.683 70.0503 144.361 63.6473 144.361H53.2722V168.33H58.8193V161.653H63.6473H63.9212L68.5437 168.33H74.5016ZM68.441 153.059C68.441 155.661 66.7289 157.236 63.3391 157.236H58.8193V148.881H63.3391C66.7289 148.881 68.441 150.422 68.441 153.059ZM83.9642 163.879V158.332H95.0925V154.017H83.9642V148.813H96.5649V144.361H78.4514V168.33H97.01V163.879H83.9642Z" fill="white"/>
</svg>
