<svg width="460" height="277" viewBox="0 0 460 277" fill="none" xmlns="http://www.w3.org/2000/svg">
<path d="M158 40.5C181.6 54.5 185.833 38.3333 185 28.5C226 -7.50005 303 1.00002 323 12C343 23 352 74.5 355.5 81.5C359 88.5 376.5 97.5 379.5 99.5C382.5 101.5 382.5 130 391 131C397.8 131.8 410.5 125.333 416 122C456 122.5 447 154.5 447.5 163.5C447.9 170.7 453.333 187.5 456 195C421.2 181.8 410.5 210.833 409.5 227C420.5 261.5 407 266 370.5 273.5C341.3 279.5 306.667 264 293 255.5C283.667 254.167 261.1 251.5 245.5 251.5C226 251.5 228.5 248 213.5 247.5C198.5 247 185 238.5 181 235.5C177 232.5 171 238.5 160 241C149 243.5 152 235 144 235.5C136 236 135 224 132 221.5C129 219 117.5 224 110 215.5C102.5 207 80.5 198 75 195.5C70.6 193.5 63.5 182 60.5 176.5C46.5 179 36.4999 166.5 30.9999 163.5C25.4999 160.5 26.9997 142.5 11.4997 142.5C-4.00031 142.5 4.49969 128 6.99969 126.5C9.49969 125 12.4997 115 13.4997 112.5C14.2997 110.5 27.1664 99.3334 33.4997 94C28.2997 86 29.6665 79.6667 30.9999 77.5C26.5999 66.3 32.8332 57.5 36.4999 54.5C45.6999 52.1 54.6665 45.8333 57.9999 43C67.1999 42.6 81.8332 35.1667 87.9999 31.5C108.8 40.7 120 38.6667 123 36.5C139 19.3 153 32 158 40.5Z" stroke="#838383" stroke-width="4"/>
</svg>
