<svg width="457" height="401" viewBox="0 0 457 401" fill="none" xmlns="http://www.w3.org/2000/svg">
<path d="M237.94 45.8389C270.704 68.0854 278.466 45.646 278.251 31.6455C341.256 -15.0636 451.908 4.9123 479.762 22.5421C507.615 40.1719 515.455 113.975 519.817 124.242C524.18 134.508 548.615 149.05 552.758 152.189C556.9 155.329 554.026 195.658 566.234 197.95C576.001 199.784 595.045 191.944 603.346 187.795C661.222 192.632 644.961 236.984 644.778 249.771C644.631 260 650.805 284.333 653.91 295.221C604.845 272.951 586.422 312.93 583.343 335.703C595.793 385.657 575.789 390.631 522.174 397.476C479.283 402.952 430.692 377.444 411.757 364.006C398.376 361.156 365.964 355.053 343.373 353.443C315.134 351.43 319.107 346.735 297.435 344.479C275.763 342.224 257.07 328.802 251.58 324.144C246.09 319.486 236.796 327.357 220.614 329.759C204.432 332.162 209.634 320.443 197.998 320.325C186.362 320.207 186.124 303.123 182.032 299.276C177.94 295.429 160.782 301.317 150.778 288.515C140.774 275.713 109.822 260.707 102.109 256.602C95.9389 253.317 86.8168 236.312 83.0271 228.219C62.5006 230.312 49.2795 211.592 41.6172 206.779C33.9549 201.966 37.9424 176.65 15.4958 175.05C-6.95071 173.45 6.82115 153.81 10.5928 151.945C14.3645 150.081 19.7176 136.24 21.418 132.806C22.7782 130.058 42.5375 115.585 52.2471 108.692C45.5236 96.8351 48.1417 88.0143 50.2912 85.086C45.0489 68.7835 54.9633 56.9746 60.5758 53.108C74.141 50.6616 87.7583 42.7196 92.8713 39.0544C106.235 39.438 128.176 30.4301 137.476 25.8782C166.67 41.0435 183.094 39.3223 187.658 36.566C212.563 13.879 231.556 33.295 237.94 45.8389Z" stroke="#838383" stroke-width="4.31176"/>
</svg>
