<svg width="605" height="370" viewBox="0 0 605 370" fill="none" xmlns="http://www.w3.org/2000/svg">
<path d="M151.69 120.009C188.031 125.407 185.481 103.528 179.663 91.9136C213.509 27.505 314.029 -0.359648 344.407 3.15749C374.785 6.67462 411.057 65.1976 418.837 72.0209C426.617 78.8442 452.894 81.1572 457.621 82.1129C462.348 83.0685 476.185 117.93 487.312 114.929C496.213 112.529 508.971 98.3082 514.238 91.4979C564.555 72.2332 568.825 115.848 573.821 126.608C577.818 135.217 592.776 153.067 599.756 160.916C549.783 162.062 550.485 202.892 557.083 223.165C587.604 259.899 572.889 272.112 530.838 299.423C497.197 321.272 446.316 319.522 425.08 315.916C412.749 318.923 383.204 326.874 363.675 334.626C339.264 344.316 340.694 338.792 321.674 345.634C302.653 352.476 281.626 348.787 275.162 347.105C268.699 345.423 264.101 355.744 251.544 364.268C238.988 372.792 238.616 360.904 228.844 365.491C219.072 370.078 211.994 355.896 207.024 354.329C202.055 352.761 190.086 364.592 176.57 357.921C163.055 351.251 131.144 351.174 123.045 350.849C116.566 350.589 102.094 340.05 95.668 334.813C79.356 344.828 60.7681 334.507 52.4263 333.57C44.0846 332.634 37.2224 309.871 17.8188 317.573C-1.58487 325.275 2.01553 303.315 4.41684 300.238C6.81815 297.161 5.7183 283.438 5.75631 279.883C5.7867 277.039 16.472 256.986 21.8108 247.315C11.4169 240.114 10.0528 231.687 10.67 228.375C-0.276169 216.861 3.25427 202.999 6.38777 197.508C16.7395 190.001 24.9217 177.88 27.7188 172.757C39.0416 167.697 53.7511 151.333 59.6905 143.783C90.1959 144.701 103.229 136.649 105.933 132.508C117.611 103.518 141.303 112.096 151.69 120.009Z" stroke="#838383" stroke-width="4"/>
</svg>
